<?xml version="1.0" encoding="UTF-8" standalone="no"?>
<svg
   id="svg8"
   version="1.1"
   viewBox="0 0 16.933333 16.933334"
   height="64"
   width="64"
   sodipodi:docname="icon.svg"
   inkscape:export-filename="/home/vlyskouski/Work/terCAD.git/web/icons/Icon-maskable-192.png"
   inkscape:export-xdpi="276.97964"
   inkscape:export-ydpi="276.97964"
   inkscape:version="1.1.2 (0a00cf5339, 2022-02-04)"
   xmlns:inkscape="http://www.inkscape.org/namespaces/inkscape"
   xmlns:sodipodi="http://sodipodi.sourceforge.net/DTD/sodipodi-0.dtd"
   xmlns="http://www.w3.org/2000/svg"
   xmlns:svg="http://www.w3.org/2000/svg"
   xmlns:rdf="http://www.w3.org/1999/02/22-rdf-syntax-ns#"
   xmlns:cc="http://creativecommons.org/ns#"
   xmlns:dc="http://purl.org/dc/elements/1.1/">
  <sodipodi:namedview
     id="namedview10"
     pagecolor="#ffffff"
     bordercolor="#111111"
     borderopacity="1"
     inkscape:pageshadow="0"
     inkscape:pageopacity="0"
     inkscape:pagecheckerboard="1"
     showgrid="false"
     inkscape:zoom="9.0708542"
     inkscape:cx="32.797352"
     inkscape:cy="37.262202"
     inkscape:window-width="1920"
     inkscape:window-height="980"
     inkscape:window-x="1920"
     inkscape:window-y="27"
     inkscape:window-maximized="1"
     inkscape:current-layer="svg8" />
  <title
     id="title4870">terCAD</title>
  <defs
     id="defs2" />
  <metadata
     id="metadata5">
    <rdf:RDF>
      <cc:Work
         rdf:about="">
        <dc:format>image/svg+xml</dc:format>
        <dc:type
           rdf:resource="http://purl.org/dc/dcmitype/StillImage" />
        <dc:title>terCAD</dc:title>
        <dc:date>2022-10-07</dc:date>
        <dc:creator>
          <cc:Agent>
            <dc:title>Viachaslau Lyskouski</dc:title>
          </cc:Agent>
        </dc:creator>
        <dc:rights>
          <cc:Agent>
            <dc:title />
          </cc:Agent>
        </dc:rights>
        <dc:contributor>
          <cc:Agent>
            <dc:title>Iryna Shepetovetska</dc:title>
          </cc:Agent>
        </dc:contributor>
      </cc:Work>
    </rdf:RDF>
  </metadata>
  <rect
     style="opacity:0.6;fill:#ffffff;stroke:none;stroke-width:0.264583;fill-opacity:1"
     id="rect849"
     width="16.669771"
     height="16.785404"
     x="0.12120315"
     y="0.080699436" />
  <g
     transform="translate(0,-280.06665)"
     id="layer1">
    <g
       transform="matrix(0.16525823,0,0,0.16525823,6.6585413,247.39211)"
       id="g4868">
      <path
         style="fill:#9b7c7c;fill-opacity:1;stroke:#ffffff;stroke-width:6;stroke-linecap:butt;stroke-linejoin:miter;stroke-miterlimit:6.0999999;stroke-dasharray:none;stroke-opacity:1;paint-order:stroke fill markers"
         d="m 23.573455,227.80913 -17.2379997,24.22118 24.0069997,-18.10927 4.098,10.81466 4.508,-10.60709 15.564,9.38961 -9.791,-15.06571 11.696,-4.47396 -11.394,-4.12606 8.511,-15.26957 -14.799,8.6642 -4.671,-11.28042 -3.563,11.19403 -16.171,-9.01841 10.174,15.67821 -11.337,4.10386 z"
         id="path3965" />
      <path
         style="fill:#9abfcb;fill-opacity:1;stroke:none;stroke-width:0.4078393"
         d="m 1.0064553,212.52975 c 0,0 -0.54800005,3.2597 -1.97500005,5.50104 -3.29299995,0.57204 -6.48799995,1.59131 -9.49700025,3.03036 -5.15,1.51797 -16.145,-6.28121 -16.145,-6.28121 l -9.387,10.32175 c 0,0 8.777,10.67505 7.287,15.64277 0.02,0.0899 0.04,0.17123 0.07,0.24521 -0.965,2.54756 -1.642,5.19682 -2.018,7.89895 -2.106,1.86631 -5.779,2.8326 -5.779,2.8326 l 0.353,7.86343 c 0,0 3.813,0.40772 5.944,1.94678 0.67,3.16132 1.754,6.22338 3.223,9.10755 0.67,5.14618 -6.431,15.13262 -6.431,15.13262 l 10.37,9.33288 c 0,0 8.923,-7.52635 13.8440003,-7.57642 2.905,1.30907 5.965,2.23719 9.10299995,2.76075 1.67100005,2.29879 2.47100005,5.72846 2.47100005,5.72846 l 8.1119997,0.18573 c 0,0 0.555,-4.05248 2.298,-6.07847 3.007,-0.56664 5.928,-1.50757 8.695,-2.80104 5.169,-0.89662 15.453,6.48618 15.453,6.48618 l 9.427,-10.28415 c 0,0 -7.277,-8.70325 -7.47,-13.58201 1.433,-3.06812 2.43,-6.32292 2.965,-9.67199 2.189,-1.5808 4.913,-2.57869 4.913,-2.57869 l -0.05,-8.42122 c 0,0 -3.269,-0.0563 -5.051,-1.73723 -0.277,-1.4689 -0.616,-2.87125 -1.037,-4.23684 l -4.768,7.93608 c -5.477,-7.75339 -16.591,0.36289 -10.351,-2.47633 4.561,-0.75505 5.534,2.6239 7.27,4.11579 0.381,0.89276 1.491,1.76489 1.11,4.85095 -0.22,1.06754 -1.064,2.01596 -1.933,2.82705 -1.456,-2.26381 -3.636,-4.44479 -6.082,-5.44536 -5.757,-2.35543 -11.608,2.41658 -12.988,4.87495 0.566,0.0991 0.978,1.06172 1.607,0.77634 1.995,-0.90473 4.753,-4.04212 9.804,-1.81497 3.65,1.24484 5.491,3.9947 6.931,6.04701 v 0 c -0.105,2.44088 -0.989,4.9781 -3.458,6.74509 -3.402,0.58397 -5.471,1.32365 -8.542,-1.64056 1.791,4.39488 2.019,4.88492 4.81,6.08366 -3.756,3.62296 -9.09,4.72998 -14.055,3.18044 -0.6609997,-0.67521 -1.5469997,-1.42296 -2.7049997,-2.25337 -11.045,4.95861 -20.1550003,-0.91672 -21.4810003,-10.09727 0,0.0268 0,0.0538 0,0.0816 -0.01,-0.10915 -0.02,-0.20666 -0.04,-0.31896 -1.871,-1.49727 -4.064,-0.0391 -7.82,-6.98256 -0.23,-0.51225 -0.413,-1.06103 -0.558,-1.63364 -0.05,-0.27426 -0.09,-0.54901 -0.124,-0.82413 1.548,-2.04915 3.142,-2.20327 3.812,-0.6018 0.255,0.61001 0.858,0.92424 1.597,1.48968 0.481,-1.9212 -0.3,-3.19641 -1.503,-3.90387 -0.899,-0.5288 -2.118,-1.01728 -4.137,0.24317 -0.04,-0.6905 -0.04,-0.84736 -0.03,-1.53805 0.256,-4.00507 1.573,-7.74632 2.576,-8.28205 0,-0.0133 0,-0.0242 0,-0.0374 1.831,-1.30975 4.797,-3.39557 8.192,-2.07215 3.3800003,0.99067 6.7730003,4.84815 8.7120003,6.16647 1.123,0.76328 1.211,-0.88012 1.945,-0.39141 -0.24,-3.86744 -2.459,-9.37648 -8,-11.36649 -1.4590003,-0.5239 -3.0460003,-0.74369 -4.6020003,-0.68048 0.408,-1.55741 1.143,-3.48658 5.3390003,-6.90149 4.144,-2.89388 9.943,-2.45332 12.877,-3.04009 1.441,1.83105 2.874,4.58407 2.684,6.78356 -0.636,5.17829 -6.43700005,2.2117 -7.13500005,3.62233 2.81800005,1.51573 8.65900005,2.57473 9.16000005,-2.03378 0.318,-2.92344 -1.139,-6.30081 -3.163,-9.23282 l 8.6019997,-7.00452 c 0,0 -1.075,-0.24879 -1.616,-0.35527 -1.947,-2.07542 -2.8299997,-5.23635 -2.8299997,-5.23635 z m -15.1810003,54.24003 c 0.01,0.08 0.02,0.15775 0.04,0.23726 0,-0.0843 -0.01,-0.16418 -0.04,-0.23726 z m 13.87900025,-15.7555 c 0.387,2.09597 -0.83499995,2.6156 3.17800005,5.43517 2.744,1.94576 7.1939997,2.19573 7.1939997,2.19573 -3.4219997,-1.80273 -0.8809997,-0.45985 -5.1399997,-2.94644 -3.79,-2.21222 -1.807,-1.29391 -5.23200005,-4.68446 z m -8.80899995,2.62854 c -1.1980003,3.68488 -3.1890003,11.43283 1.232,15.32143 4.67,4.1082 13.362,-0.12127 15.47,-1.99328 -2.095,-1.16234 -5.622,1.90136 -10.944,-3.03976 -4.387,-3.41716 -4.386,-8.31248 -5.758,-10.28839 z"
         id="path3942" />
    </g>
  </g>
</svg>
