<?xml version="1.0" encoding="UTF-8" standalone="no"?>
<!-- Generator: Adobe Illustrator 16.0.3, SVG Export Plug-In . SVG Version: 6.00 Build 0)  -->

<svg
   version="1.1"
   x="0px"
   y="0px"
   width="1000px"
   height="1000px"
   viewBox="0 0 1000 1000"
   enable-background="new 0 0 1000 1000"
   xml:space="preserve"
   id="svg104"
   sodipodi:docname="icon-circles.svg"
   inkscape:version="1.1.2 (0a00cf5339, 2022-02-04)"
   xmlns:inkscape="http://www.inkscape.org/namespaces/inkscape"
   xmlns:sodipodi="http://sodipodi.sourceforge.net/DTD/sodipodi-0.dtd"
   xmlns="http://www.w3.org/2000/svg"
   xmlns:svg="http://www.w3.org/2000/svg"><defs
   id="defs108" /><sodipodi:namedview
   id="namedview106"
   pagecolor="#ffffff"
   bordercolor="#111111"
   borderopacity="1"
   inkscape:pageshadow="0"
   inkscape:pageopacity="0"
   inkscape:pagecheckerboard="1"
   showgrid="false"
   inkscape:zoom="0.20525"
   inkscape:cx="665.04263"
   inkscape:cy="647.99026"
   inkscape:window-width="1920"
   inkscape:window-height="980"
   inkscape:window-x="1920"
   inkscape:window-y="27"
   inkscape:window-maximized="1"
   inkscape:current-layer="svg104" />
    <g
   id="Layer_1"
   display="none">
    </g>
    <g
   id="Layer_3">
        <circle
   fill="#FFFFFF"
   cx="500"
   cy="500"
   r="387"
   id="circle3" />
    </g>
    <g
   id="Layer_9"
   display="none">
        <rect
   x="351.507"
   y="350.097"
   display="inline"
   fill="#C157A1"
   width="296.985"
   height="296.985"
   id="rect6" />
    </g>
    <g
   id="Layer_10">
    </g>
    <g
   id="Layer_11"
   display="none">
        <rect
   x="245.763"
   y="245.763"
   display="inline"
   fill="#C157A1"
   width="508.475"
   height="508.475"
   id="rect10" />
    </g>
    <g
   id="Layer_12"
   display="none">

        <line
   display="inline"
   fill="none"
   stroke="#F15B30"
   stroke-width="10"
   stroke-miterlimit="10"
   x1="350.098"
   y1="645.583"
   x2="647.083"
   y2="348.598"
   id="line13" />

        <line
   display="inline"
   fill="none"
   stroke="#F15B30"
   stroke-width="10"
   stroke-miterlimit="10"
   x1="350.098"
   y1="348.598"
   x2="647.083"
   y2="645.583"
   id="line15" />

        <line
   display="inline"
   fill="none"
   stroke="#F15B30"
   stroke-width="10"
   stroke-miterlimit="10"
   x1="498.591"
   y1="707.091"
   x2="498.591"
   y2="287.091"
   id="line17" />

        <line
   display="inline"
   fill="none"
   stroke="#F15B30"
   stroke-width="10"
   stroke-miterlimit="10"
   x1="288.59"
   y1="497.09"
   x2="708.59"
   y2="497.09"
   id="line19" />
    </g>
    <g
   id="Layer_16"
   display="none">
        <polygon
   display="inline"
   fill="none"
   stroke="#072B3F"
   stroke-width="10"
   stroke-miterlimit="10"
   points="647.083,645.583              350.098,348.598 647.083,348.598 350.098,645.583  "
   id="polygon22" />
    </g>
    <g
   id="Layer_13"
   display="none">

        <circle
   display="inline"
   fill="none"
   stroke="#072B3F"
   stroke-width="10"
   stroke-miterlimit="10"
   cx="498.601"
   cy="497.091"
   r="210"
   id="circle25" />

        <circle
   display="inline"
   fill="none"
   stroke="#072B3F"
   stroke-width="10"
   stroke-miterlimit="10"
   cx="498.601"
   cy="497.091"
   r="189"
   id="circle27" />

        <circle
   display="inline"
   fill="none"
   stroke="#072B3F"
   stroke-width="10"
   stroke-miterlimit="10"
   cx="498.601"
   cy="497.091"
   r="168.21"
   id="circle29" />

        <circle
   display="inline"
   fill="none"
   stroke="#072B3F"
   stroke-width="10"
   stroke-miterlimit="10"
   cx="498.602"
   cy="497.091"
   r="148.025"
   id="circle31" />

        <circle
   display="inline"
   fill="none"
   stroke="#072B3F"
   stroke-width="10"
   stroke-miterlimit="10"
   cx="498.602"
   cy="497.091"
   r="148.025"
   id="circle33" />
    </g>
    
    <g
   id="Layer_14"
   display="none">
    </g>
    <g
   id="Layer_6"
   display="none">
        <path
   display="inline"
   fill="#C879B2"
   d="M999.709,1000V0.459c-273.653,2.772-494.637,225.46-494.637,499.77             C505.072,774.538,726.056,997.229,999.709,1000z"
   id="path52" />
        <path
   display="inline"
   fill="#FFFFFF"
   d="M1000,678.914L1000,678.914V666l0,0c-98.985,0-179.515-80.53-179.515-179.517             c0-98.986,80.529-179.516,179.515-179.516l0,0v-12.915l0,0c-106.105,0-192.431,86.325-192.431,192.431             C807.569,592.591,893.895,678.914,1000,678.914z"
   id="path54" />
        <path
   display="inline"
   fill="#FFFFFF"
   d="M833.722,486.483c0,91.687,74.594,166.279,166.278,166.279v-12.915             c-84.563,0-153.363-68.799-153.363-153.364S915.438,333.12,1000,333.12v-12.914C908.315,320.206,833.722,394.797,833.722,486.483z"
   id="path56" />
        <path
   display="inline"
   fill="#FFFFFF"
   d="M859.875,486.483c0,77.266,62.86,140.125,140.125,140.125v-12.913             c-70.144,0-127.21-57.068-127.21-127.212S929.856,359.272,1000,359.272v-12.914C922.735,346.358,859.875,409.218,859.875,486.483z"
   id="path58" />
    </g>
    <g
   id="Layer_8"
   display="none">
        <g
   display="inline"
   id="g75">
            <path
   fill="#072B3F"
   d="M501.742,645.606L501.742,645.606v-9.865l0,0c-75.61,0-137.123-61.512-137.123-137.124                 c0-75.61,61.513-137.124,137.123-137.124l0,0v-9.865l0,0c-81.049,0-146.988,65.939-146.988,146.988                 C354.754,579.668,420.693,645.606,501.742,645.606z"
   id="path61" />
            <path
   fill="#072B3F"
   d="M374.73,498.617c0,70.036,56.979,127.013,127.012,127.013v-9.865                 c-64.593,0-117.147-52.553-117.147-117.147s52.554-117.146,117.147-117.146v-9.865C431.709,371.606,374.73,428.583,374.73,498.617                 z"
   id="path63" />
            <path
   fill="#072B3F"
   d="M501.36,351.63L501.36,351.63v9.864l0,0c75.61,0,137.122,61.513,137.122,137.125                 c0,75.611-61.512,137.124-137.122,137.124l0,0v9.865l0,0c81.049,0,146.988-65.939,146.988-146.989                 C648.349,417.568,582.409,351.63,501.36,351.63z"
   id="path65" />
            <path
   fill="#072B3F"
   d="M628.372,498.619c0-70.036-56.979-127.013-127.012-127.013v9.865c64.594,0,117.146,52.552,117.146,117.147                 S565.954,615.766,501.36,615.766v9.864C571.395,625.63,628.372,568.653,628.372,498.619z"
   id="path67" />
            <g
   id="g73">
                <path
   fill="#072B3F"
   d="M394.708,498.617c0,59.021,48.016,107.035,107.035,107.035v-9.863c-53.579,0-97.169-43.592-97.169-97.172                     c0-53.58,43.59-97.17,97.169-97.17v-9.865C442.724,391.583,394.708,439.599,394.708,498.617z"
   id="path69" />
                <path
   fill="#072B3F"
   d="M608.396,498.619c0-59.02-48.018-107.035-107.035-107.035v9.864c53.579,0,97.169,43.592,97.169,97.171                     s-43.59,97.17-97.169,97.17v9.864C560.379,605.653,608.396,557.638,608.396,498.619z"
   id="path71" />
            </g>
        </g>
    </g>
    <g
   id="Layer_7"
   display="none">
    </g>
    <g
   id="Layer_5"
   display="none">
        <g
   display="inline"
   id="g87">
            <line
   fill="none"
   stroke="#02BCD9"
   stroke-width="10"
   stroke-miterlimit="10"
   x1="353.75"
   y1="500"
   x2="646.25"
   y2="500"
   id="line79" />
            <line
   fill="none"
   stroke="#02BCD9"
   stroke-width="10"
   stroke-miterlimit="10"
   x1="500"
   y1="353.75"
   x2="500"
   y2="646.25"
   id="line81" />
            <line
   fill="none"
   stroke="#02BCD9"
   stroke-width="10"
   stroke-miterlimit="10"
   x1="396.585"
   y1="396.585"
   x2="603.414"
   y2="603.414"
   id="line83" />
            <line
   fill="none"
   stroke="#02BCD9"
   stroke-width="10"
   stroke-miterlimit="10"
   x1="603.414"
   y1="396.586"
   x2="396.585"
   y2="603.414"
   id="line85" />
        </g>
    </g>
    <g
   id="Layer_4"
   display="none">
        <g
   display="inline"
   id="g98">
            <line
   fill="none"
   stroke="#5C1C1F"
   stroke-width="10"
   stroke-miterlimit="10"
   x1="353.75"
   y1="500"
   x2="646.25"
   y2="500"
   id="line90" />
            <line
   fill="none"
   stroke="#5C1C1F"
   stroke-width="10"
   stroke-miterlimit="10"
   x1="500"
   y1="353.75"
   x2="500"
   y2="646.25"
   id="line92" />
            <line
   fill="none"
   stroke="#5C1C1F"
   stroke-width="10"
   stroke-miterlimit="10"
   x1="396.585"
   y1="396.585"
   x2="603.414"
   y2="603.414"
   id="line94" />
            <line
   fill="none"
   stroke="#5C1C1F"
   stroke-width="10"
   stroke-miterlimit="10"
   x1="603.414"
   y1="396.586"
   x2="396.585"
   y2="603.414"
   id="line96" />
        </g>
    </g>
    <g
   id="Layer_2"
   display="none">
        <circle
   display="inline"
   fill="#FFFFFF"
   cx="500"
   cy="500"
   r="387"
   id="circle101" />
    </g>
<circle
   fill="none"
   stroke="#ffffff"
   stroke-width="10"
   stroke-miterlimit="10"
   cx="465.67114"
   cy="474.64548"
   r="59.209999"
   id="circle14"
   style="stroke:#104c71;stroke-opacity:1" /><circle
   fill="none"
   stroke="#ffffff"
   stroke-width="10"
   stroke-miterlimit="10"
   cx="460.31982"
   cy="297.7081"
   r="59.209999"
   id="circle16"
   style="stroke:#104c71;stroke-opacity:1" /><circle
   fill="none"
   stroke="#ffffff"
   stroke-width="10"
   stroke-miterlimit="10"
   cx="535.17554"
   cy="748.24695"
   r="59.209999"
   id="circle18"
   style="stroke:#104c71;stroke-opacity:1" /><circle
   fill="none"
   stroke="#ffffff"
   stroke-width="10"
   stroke-miterlimit="10"
   cx="290.30042"
   cy="390.17612"
   r="59.209999"
   id="circle20"
   style="stroke:#104c71;stroke-opacity:1" /><circle
   fill="none"
   stroke="#ffffff"
   stroke-width="10"
   stroke-miterlimit="10"
   cx="271.33484"
   cy="638.90869"
   r="59.209999"
   id="circle22"
   style="stroke:#104c71;stroke-opacity:1" /><circle
   fill="none"
   stroke="#ffffff"
   stroke-width="10"
   stroke-miterlimit="10"
   cx="704.67517"
   cy="341.51285"
   r="59.209999"
   id="circle24"
   style="stroke:#104c71;stroke-opacity:1" /><circle
   fill="none"
   stroke="#ffffff"
   stroke-width="10"
   stroke-miterlimit="10"
   cx="754.32935"
   cy="540.08765"
   r="59.209999"
   id="circle26"
   style="stroke:#104c71;stroke-opacity:1" /><circle
   fill="none"
   stroke="#ffffff"
   stroke-width="10"
   stroke-miterlimit="10"
   cx="601.01611"
   cy="582.35907"
   r="59.209999"
   id="circle26-3"
   style="stroke:#104c71;stroke-opacity:1" /><g
   aria-label="A"
   transform="matrix(0.94758257,0,0,1.055317,-1019.0585,4.0765449)"
   id="text2792"
   style="font-size:102.026px;line-height:1.25;fill:#104c71;stroke:#104c71;stroke-width:2.55066;stroke-opacity:1;fill-opacity:1"><path
     d="m 1386.6637,636.36804 -8.7742,-22.54774 h -28.8734 l -8.6722,22.54774 h -9.2843 l 28.4652,-73.15264 h 8.2641 l 28.3633,73.15264 z m -19.691,-52.74744 q -0.3061,-0.81621 -1.0202,-2.95875 -0.7142,-2.14255 -1.4284,-4.38712 -0.6122,-2.3466 -1.0203,-3.57091 -0.7141,3.1628 -1.6324,6.22358 -0.9182,2.95876 -1.5304,4.6932 l -8.2641,22.03762 h 23.0579 z"
     id="path6220"
     style="stroke:#104c71;stroke-opacity:1;fill:#104c71;fill-opacity:1" /></g><path
   style="fill:#ffffff;stroke:#104c71;stroke-width:6.96635;stroke-linecap:butt;stroke-linejoin:miter;stroke-miterlimit:4;stroke-dasharray:none;stroke-opacity:1"
   d="m 319.81423,600.05691 101.851,-86.45956"
   id="path6306" /><path
   style="fill:#ffffff;stroke:#104c71;stroke-width:6.95761;stroke-linecap:butt;stroke-linejoin:miter;stroke-miterlimit:4;stroke-dasharray:none;stroke-opacity:1"
   d="m 622.88593,526.35551 62.8243,-125.01569"
   id="path6306-6" /><path
   style="fill:none;stroke:#104c71;stroke-width:7;stroke-linecap:butt;stroke-linejoin:miter;stroke-miterlimit:4;stroke-dasharray:none;stroke-opacity:1"
   d="m 508.67213,510.25584 48.2114,31.63904"
   id="path7423" /><text
   xml:space="preserve"
   style="font-style:normal;font-weight:normal;font-size:93.7263px;line-height:1.25;font-family:sans-serif;fill:#104c71;fill-opacity:1;stroke:#104c71;stroke-width:2.34316;stroke-opacity:1"
   x="695.12244"
   y="365.07797"
   id="text9872"
   transform="scale(0.97641709,1.0241525)"><tspan
     sodipodi:role="line"
     id="tspan9870"
     x="695.12244"
     y="365.07797"
     style="stroke:#104c71;stroke-width:2.34316;stroke-opacity:1;fill:#104c71;fill-opacity:1">B</tspan></text><path
   style="fill:none;stroke:#104c71;stroke-width:7.53337;stroke-linecap:butt;stroke-linejoin:miter;stroke-miterlimit:4;stroke-dasharray:22.6001, 22.6001;stroke-dashoffset:0;stroke-opacity:1"
   d="m 328.73803,668.50585 146.1726,48.2765"
   id="path12649" /><path
   style="fill:none;stroke:#104c71;stroke-width:7;stroke-linecap:butt;stroke-linejoin:miter;stroke-miterlimit:4;stroke-dasharray:21, 21;stroke-dashoffset:0;stroke-opacity:1"
   d="m 411.60603,446.34318 -68.6073,-35.12006"
   id="path13668" /><path
   style="fill:none;stroke:#104c71;stroke-width:7;stroke-linecap:butt;stroke-linejoin:miter;stroke-miterlimit:4;stroke-dasharray:21, 7;stroke-dashoffset:0;stroke-opacity:1"
   d="m 340.42323,355.50917 67.876,-26.3201"
   id="path13769" /><path
   style="fill:none;stroke:#104c71;stroke-width:7;stroke-linecap:butt;stroke-linejoin:miter;stroke-miterlimit:4;stroke-dasharray:21, 21;stroke-dashoffset:0;stroke-opacity:1"
   d="M 499.72243,344.94562 591.28803,523.105"
   id="path13870" /><path
   style="fill:none;stroke:#104c71;stroke-width:6.7726;stroke-linecap:butt;stroke-linejoin:miter;stroke-miterlimit:4;stroke-dasharray:27.0904, 27.0904;stroke-dashoffset:0;stroke-opacity:1"
   d="M 582.43483,717.01605 723.42733,593.08623"
   id="path13971" /><path
   style="fill:none;stroke:#104c71;stroke-width:7;stroke-linecap:butt;stroke-linejoin:miter;stroke-miterlimit:4;stroke-dasharray:28, 7;stroke-dashoffset:0;stroke-opacity:1"
   d="m 746.43623,480.73056 -20.0501,-79.8874"
   id="path14140" /></svg>
