<?xml version="1.0" encoding="UTF-8" standalone="no"?>
<!-- Generator: Adobe Illustrator 16.0.3, SVG Export Plug-In . SVG Version: 6.00 Build 0)  -->

<svg xmlns:dc="http://purl.org/dc/elements/1.1/"
     xmlns:cc="http://creativecommons.org/ns#"
     xmlns:rdf="http://www.w3.org/1999/02/22-rdf-syntax-ns#"
     xmlns:svg="http://www.w3.org/2000/svg"
     xmlns="http://www.w3.org/2000/svg"
     xmlns:sodipodi="http://sodipodi.sourceforge.net/DTD/sodipodi-0.dtd"
     xmlns:inkscape="http://www.inkscape.org/namespaces/inkscape" version="1.1" x="0px" y="0px" width="1000px" height="1000px" viewBox="0 0 1000 1000" enable-background="new 0 0 1000 1000" xml:space="preserve" id="svg1595" sodipodi:docname="icon-visual-disability.svg" inkscape:version="0.92.4 (5da689c313, 2019-01-14)">
     <metadata id="metadata1601">
          <rdf:RDF>
               <cc:Work rdf:about="">
                    <dc:format>image/svg+xml</dc:format>
                    <dc:type rdf:resource="http://purl.org/dc/dcmitype/StillImage" />
                    <dc:title></dc:title>
               </cc:Work>
          </rdf:RDF>
     </metadata>
     <defs id="defs1599" />
     <sodipodi:namedview pagecolor="#ffffff" bordercolor="#666666" borderopacity="1" objecttolerance="10" gridtolerance="10" guidetolerance="10" inkscape:pageopacity="0" inkscape:pageshadow="2" inkscape:window-width="1920" inkscape:window-height="1017" id="namedview1597" showgrid="false" inkscape:zoom="1.3350176" inkscape:cx="545.1032" inkscape:cy="524.62549" inkscape:window-x="-8" inkscape:window-y="-8" inkscape:window-maximized="1" inkscape:current-layer="svg1595" />
     <g id="Layer_1" display="none">
     </g>
     <g id="Layer_3">
          <circle fill="#FFFFFF" cx="500" cy="500" r="387" id="circle1494" />
     </g>
     <g id="Layer_9" display="none">
          <rect x="351.507" y="350.097" display="inline" fill="#C157A1" width="296.985" height="296.985" id="rect1497" />
     </g>
     <g id="Layer_10">
     </g>
     <g id="Layer_11" display="none">
          <rect x="245.763" y="245.763" display="inline" fill="#C157A1" width="508.475" height="508.475" id="rect1501" />
     </g>

     <g id="Layer_16" display="none">
          <polygon display="inline" fill="none" stroke="#072B3F" stroke-width="10" stroke-miterlimit="10" points="647.083,645.583    350.098,348.598 647.083,348.598 350.098,645.583  " id="polygon1513" />
     </g>
     <g id="Layer_13" display="none">

          <circle display="inline" fill="none" stroke="#072B3F" stroke-width="10" stroke-miterlimit="10" cx="498.601" cy="497.091" r="210" id="circle1516" />

          <circle display="inline" fill="none" stroke="#072B3F" stroke-width="10" stroke-miterlimit="10" cx="498.601" cy="497.091" r="189" id="circle1518" />

          <circle display="inline" fill="none" stroke="#072B3F" stroke-width="10" stroke-miterlimit="10" cx="498.601" cy="497.091" r="168.21" id="circle1520" />

          <circle display="inline" fill="none" stroke="#072B3F" stroke-width="10" stroke-miterlimit="10" cx="498.602" cy="497.091" r="148.025" id="circle1522" />

          <circle display="inline" fill="none" stroke="#072B3F" stroke-width="10" stroke-miterlimit="10" cx="498.602" cy="497.091" r="148.025" id="circle1524" />
     </g>
     <g id="Layer_15" display="none">

          <circle display="inline" fill="none" stroke="#072B3F" stroke-width="10" stroke-miterlimit="10" cx="498.602" cy="497.091" r="59.21" id="circle1527" />

          <circle display="inline" fill="none" stroke="#072B3F" stroke-width="10" stroke-miterlimit="10" cx="498.602" cy="344.97" r="59.21" id="circle1529" />

          <circle display="inline" fill="none" stroke="#072B3F" stroke-width="10" stroke-miterlimit="10" cx="498.602" cy="647.206" r="59.21" id="circle1531" />

          <circle display="inline" fill="none" stroke="#072B3F" stroke-width="10" stroke-miterlimit="10" cx="348.482" cy="417.03" r="59.21" id="circle1533" />

          <circle display="inline" fill="none" stroke="#072B3F" stroke-width="10" stroke-miterlimit="10" cx="348.482" cy="569.149" r="59.21" id="circle1535" />

          <circle display="inline" fill="none" stroke="#072B3F" stroke-width="10" stroke-miterlimit="10" cx="648.717" cy="417.03" r="59.21" id="circle1537" />

          <circle display="inline" fill="none" stroke="#072B3F" stroke-width="10" stroke-miterlimit="10" cx="648.717" cy="569.149" r="59.21" id="circle1539" />
     </g>
     <g id="Layer_14" display="none">
     </g>
     <g id="Layer_6" display="none">
          <path display="inline" fill="#C879B2" d="M999.709,1000V0.459c-273.653,2.772-494.637,225.46-494.637,499.77   C505.072,774.538,726.056,997.229,999.709,1000z" id="path1543" />
          <path display="inline" fill="#FFFFFF" d="M1000,678.914L1000,678.914V666l0,0c-98.985,0-179.515-80.53-179.515-179.517   c0-98.986,80.529-179.516,179.515-179.516l0,0v-12.915l0,0c-106.105,0-192.431,86.325-192.431,192.431   C807.569,592.591,893.895,678.914,1000,678.914z" id="path1545" />
          <path display="inline" fill="#FFFFFF" d="M833.722,486.483c0,91.687,74.594,166.279,166.278,166.279v-12.915   c-84.563,0-153.363-68.799-153.363-153.364S915.438,333.12,1000,333.12v-12.914C908.315,320.206,833.722,394.797,833.722,486.483z" id="path1547" />
          <path display="inline" fill="#FFFFFF" d="M859.875,486.483c0,77.266,62.86,140.125,140.125,140.125v-12.913   c-70.144,0-127.21-57.068-127.21-127.212S929.856,359.272,1000,359.272v-12.914C922.735,346.358,859.875,409.218,859.875,486.483z" id="path1549" />
     </g>
     <g id="Layer_8" display="none">
          <g display="inline" id="g1566">
               <path fill="#072B3F" d="M501.742,645.606L501.742,645.606v-9.865l0,0c-75.61,0-137.123-61.512-137.123-137.124    c0-75.61,61.513-137.124,137.123-137.124l0,0v-9.865l0,0c-81.049,0-146.988,65.939-146.988,146.988    C354.754,579.668,420.693,645.606,501.742,645.606z" id="path1552" />
               <path fill="#072B3F" d="M374.73,498.617c0,70.036,56.979,127.013,127.012,127.013v-9.865    c-64.593,0-117.147-52.553-117.147-117.147s52.554-117.146,117.147-117.146v-9.865C431.709,371.606,374.73,428.583,374.73,498.617    z" id="path1554" />
               <path fill="#072B3F" d="M501.36,351.63L501.36,351.63v9.864l0,0c75.61,0,137.122,61.513,137.122,137.125    c0,75.611-61.512,137.124-137.122,137.124l0,0v9.865l0,0c81.049,0,146.988-65.939,146.988-146.989    C648.349,417.568,582.409,351.63,501.36,351.63z" id="path1556" />
               <path fill="#072B3F" d="M628.372,498.619c0-70.036-56.979-127.013-127.012-127.013v9.865c64.594,0,117.146,52.552,117.146,117.147    S565.954,615.766,501.36,615.766v9.864C571.395,625.63,628.372,568.653,628.372,498.619z" id="path1558" />
               <g id="g1564">
                    <path fill="#072B3F" d="M394.708,498.617c0,59.021,48.016,107.035,107.035,107.035v-9.863c-53.579,0-97.169-43.592-97.169-97.172     c0-53.58,43.59-97.17,97.169-97.17v-9.865C442.724,391.583,394.708,439.599,394.708,498.617z" id="path1560" />
                    <path fill="#072B3F" d="M608.396,498.619c0-59.02-48.018-107.035-107.035-107.035v9.864c53.579,0,97.169,43.592,97.169,97.171     s-43.59,97.17-97.169,97.17v9.864C560.379,605.653,608.396,557.638,608.396,498.619z" id="path1562" />
               </g>
          </g>
     </g>
     <g id="Layer_7" display="none">
     </g>
     <g id="Layer_5" display="none">
          <g display="inline" id="g1578">
               <line fill="none" stroke="#02BCD9" stroke-width="10" stroke-miterlimit="10" x1="353.75" y1="500" x2="646.25" y2="500" id="line1570" />
               <line fill="none" stroke="#02BCD9" stroke-width="10" stroke-miterlimit="10" x1="500" y1="353.75" x2="500" y2="646.25" id="line1572" />

               <line fill="none" stroke="#02BCD9" stroke-width="10" stroke-miterlimit="10" x1="396.585" y1="396.585" x2="603.414" y2="603.414" id="line1574" />

               <line fill="none" stroke="#02BCD9" stroke-width="10" stroke-miterlimit="10" x1="603.414" y1="396.586" x2="396.585" y2="603.414" id="line1576" />
          </g>
     </g>
     <g id="Layer_4" display="none">
          <g display="inline" id="g1589">
               <line fill="none" stroke="#5C1C1F" stroke-width="10" stroke-miterlimit="10" x1="353.75" y1="500" x2="646.25" y2="500" id="line1581" />
               <line fill="none" stroke="#5C1C1F" stroke-width="10" stroke-miterlimit="10" x1="500" y1="353.75" x2="500" y2="646.25" id="line1583" />

               <line fill="none" stroke="#5C1C1F" stroke-width="10" stroke-miterlimit="10" x1="396.585" y1="396.585" x2="603.414" y2="603.414" id="line1585" />

               <line fill="none" stroke="#5C1C1F" stroke-width="10" stroke-miterlimit="10" x1="603.414" y1="396.586" x2="396.585" y2="603.414" id="line1587" />
          </g>
     </g>
     <g id="Layer_2" display="none">
          <circle display="inline" fill="#FFFFFF" cx="500" cy="500" r="387" id="circle1592" />
     </g>
     <path style="fill:#f15b30;fill-opacity:1;stroke:none;stroke-width:0.32801035" d="m 597.55931,695.28328 c -3.65517,-0.94754 -6.29129,-2.53258 -9.01568,-5.42108 -2.28627,-2.4239 -2.97448,-3.60001 -15.16815,-25.92229 -7.02532,-12.86071 -13.93231,-25.51632 -15.34881,-28.12338 -1.41636,-2.60722 -5.81411,-10.6534 -9.77271,-17.88047 -3.95845,-7.22707 -8.85652,-16.17244 -10.8846,-19.87864 -2.02822,-3.70621 -7.58488,-13.86049 -12.3484,-22.56485 -4.76352,-8.70467 -8.77237,-15.94418 -8.90854,-16.08785 -0.13558,-0.14461 -1.89324,-0.0171 -3.90452,0.28345 -2.80736,0.41826 -5.15832,0.50425 -10.12197,0.37068 -3.55598,-0.0964 -6.41035,-0.0762 -6.3433,0.0451 5.8231,10.42965 27.66686,50.76472 27.92579,51.56564 0.53715,1.66139 0.45389,5.38159 -0.16344,7.30217 -0.37446,1.16507 -1.11277,2.27137 -2.47475,3.70839 -2.30734,2.43447 -4.02005,3.17443 -7.34673,3.17412 -2.7378,-3.1e-4 -5.4367,-1.20798 -7.25183,-3.24487 -0.91368,-1.02529 -21.34905,-38.02344 -42.03318,-76.10084 -1.3546,-2.49386 -3.10077,-5.1782 -4.05468,-6.23319 -6.02853,-6.66809 -11.05982,-15.65901 -13.67516,-24.43676 -0.91456,-3.06933 -1.84431,-5.06253 -5.34341,-11.45556 -15.19629,-27.76281 -31.36109,-57.31077 -38.1493,-69.73393 -4.35413,-7.96828 -7.95684,-14.53872 -8.0062,-14.60123 -0.37388,-0.47299 -22.28057,13.58792 -22.94991,14.7306 -0.11348,0.19312 1.86155,4.10923 4.38817,8.70249 2.52663,4.59327 7.57752,13.80965 11.22414,20.48069 3.64676,6.67121 7.96229,14.55521 9.59026,17.52021 2.62757,4.78529 24.3334,44.46141 32.34875,59.13043 3.92411,7.18136 14.46136,26.42515 26.10535,47.67503 5.07712,9.26536 9.5011,17.68005 9.83136,18.69927 1.61721,4.99225 -0.73375,10.73845 -5.37569,13.1398 -2.2316,1.1545 -6.28024,1.18171 -8.65345,0.0575 -3.25226,-1.53963 -2.12888,0.31922 -24.06209,-39.81496 -2.58233,-4.72543 -7.9315,-14.50468 -11.88685,-21.73175 -16.19294,-29.58652 -44.61624,-81.5314 -47.19622,-86.25294 -13.50214,-24.71058 -13.16629,-24.13077 -13.70536,-23.66104 -3.46286,3.01755 -9.28198,8.64559 -14.02899,13.56833 l -5.86274,6.07973 2.21862,4.02806 c 1.22021,2.21539 9.51688,17.37016 18.43706,33.6774 8.92018,16.30725 21.27802,38.89806 27.46188,50.20202 12.91238,23.60289 12.58448,22.96445 12.91002,25.13693 0.52036,3.47297 -0.55307,6.97347 -2.89681,9.44619 -3.92765,4.14406 -10.14673,4.21885 -14.17282,0.17041 -1.48783,-1.4961 -3.6005,-5.16623 -15.35132,-26.66739 -42.55884,-77.87293 -42.52067,-77.80342 -42.81438,-77.89656 -0.31772,-0.10107 -5.15803,6.85996 -9.81397,14.11362 -3.59534,5.60145 -4.71681,6.83167 -7.5336,8.26387 -2.50599,1.27406 -6.75358,1.48102 -9.62784,0.46895 -5.30038,-1.86632 -8.57402,-6.76901 -8.57402,-12.84034 0,-3.83028 0.64503,-5.44689 4.72683,-11.84723 8.4573,-13.26062 17.67104,-25.32087 27.91989,-36.54569 26.53685,-29.06408 57.1409,-50.74793 92.21153,-65.33439 3.24932,-1.3515 6.30293,-2.56182 6.78586,-2.68963 0.48292,-0.1275 0.87816,-0.3245 0.87816,-0.43707 0,-0.23821 0.37137,0.44593 -15.75835,-29.03485 -6.84347,-12.50837 -12.83472,-23.65218 -13.31367,-24.76407 -1.33132,-3.09079 -1.68957,-5.33976 -1.51007,-9.47916 0.11642,-2.69195 0.3525,-4.19599 0.89039,-5.68245 3.53993,-9.78158 13.00596,-15.31088 22.4437,-13.10948 3.76953,0.87928 6.73693,2.60939 9.48328,5.52899 2.28317,2.42716 2.99186,3.63887 15.16829,25.93411 7.02518,12.86334 14.67269,26.88352 16.99403,31.15585 2.32164,4.27234 4.40837,7.89676 4.63723,8.05443 0.24507,0.16886 2.9089,-0.13683 6.47667,-0.74432 17.10618,-2.91011 36.26903,-4.11748 51.51041,-3.2455 4.77134,0.27304 9.42993,0.57219 10.35246,0.66502 6.76949,0.68073 9.27858,0.96993 13.49242,1.55488 56.2872,7.81372 108.62979,35.308 148.85255,78.18857 6.95754,7.41738 9.19385,9.98526 14.4764,16.62319 9.11559,11.45416 19.5127,26.81899 20.78198,30.71116 0.77722,2.38379 0.82629,6.41574 0.10611,8.73328 -0.28384,0.91318 -2.2789,4.4653 -4.43357,7.89365 -29.03915,46.20381 -73.63255,83.46116 -123.26181,102.98404 -2.10766,0.82907 -3.93487,1.6135 -4.06058,1.74318 -0.25657,0.26448 -0.65888,-0.48854 15.86932,29.70609 12.27782,22.42957 13.51084,24.84212 14.1849,27.75363 0.53127,2.295 0.46451,7.41101 -0.12821,9.78251 -1.33132,5.33012 -5.49815,10.76566 -10.05889,13.12177 -4.27161,2.20683 -8.84871,2.75182 -13.33754,1.5883 z m 10.54786,-119.50446 c 22.72296,-11.99697 42.14223,-26.78167 60.11375,-45.76751 9.17705,-9.69481 17.19401,-19.56937 24.05782,-29.63207 l 2.66692,-3.90974 -2.57761,-3.788 c -11.10742,-16.32279 -25.85778,-32.81911 -41.39522,-46.29507 -9.64067,-8.36167 -21.43202,-16.85814 -32.8103,-23.64207 -4.2921,-2.55917 -14.29676,-7.92272 -14.44295,-7.74313 -0.0472,0.0575 1.22492,2.02942 2.82711,4.38086 11.95508,17.54524 19.64459,38.20365 22.37753,60.11934 4.26424,34.19316 -4.71076,69.64529 -24.66115,97.41385 -0.43267,0.60236 -0.69572,1.0951 -0.5846,1.0951 0.11052,0 2.10412,-1.00429 4.4287,-2.23156 z m -33.64234,-5.09658 c 16.32837,-17.26473 26.42499,-39.7876 28.77993,-64.2012 0.57046,-5.91335 0.23889,-19.70838 -0.61305,-25.50667 -4.17302,-28.40093 -18.89316,-53.60736 -40.93514,-70.09652 -12.62192,-9.44231 -27.56945,-15.79865 -42.76707,-18.18647 -10.51617,-1.65222 -25.8507,-1.58473 -40.55507,0.17865 -7.1979,0.86312 -7.66402,0.93262 -7.65739,1.14113 0.0147,0.26028 20.86303,38.40314 21.44101,39.2151 0.40246,0.56535 0.61644,0.57048 3.77955,0.0902 6.3881,-0.96962 15.53641,-0.55447 21.81547,0.98999 22.61066,5.56133 40.13758,24.0538 45.40834,47.91044 1.89633,8.58277 1.90267,19.95188 0.0162,28.53558 -1.94467,8.84709 -7.16311,20.11218 -12.00666,25.91763 -0.69631,0.83481 -1.26604,1.67584 -1.26604,1.86911 0,0.28113 17.66677,32.83917 19.36121,35.68056 0.24861,0.41686 0.60598,0.758 0.79402,0.758 0.18833,0 2.17043,-1.93303 4.40497,-4.29582 z M 450.16923,468.23292 c 2.07641,-4.49935 4.66449,-8.83606 7.00469,-11.73808 0.77118,-0.95609 1.40206,-1.89695 1.40206,-2.09069 0,-0.19373 -2.8887,-5.62788 -6.4192,-12.07564 -3.53064,-6.44777 -8.03759,-14.6796 -10.01557,-18.29314 -9.51628,-17.38508 -11.09135,-20.21558 -11.24904,-20.21558 -0.80035,0 -16.78801,6.43035 -16.83517,6.77118 -0.0162,0.1104 4.73435,8.90432 10.55479,19.5417 5.8203,10.63723 13.42287,24.53332 16.89456,30.88018 3.4717,6.34685 6.39739,11.5291 6.50173,11.51589 0.10463,-0.0156 1.07682,-1.94624 2.16115,-4.29582 z" id="path1381" inkscape:connector-curvature="0" />
</svg>