<?xml version="1.0" encoding="UTF-8" standalone="no"?>
<!-- Generator: Adobe Illustrator 16.0.3, SVG Export Plug-In . SVG Version: 6.00 Build 0)  -->

<svg
   version="1.1"
   id="Layer_1"
   x="0px"
   y="0px"
   width="3000px"
   height="1000px"
   viewBox="0 0 3000 1000"
   enable-background="new 0 0 3000 1000"
   xml:space="preserve"
   sodipodi:docname="icon-pack.svg"
   inkscape:version="1.1.2 (0a00cf5339, 2022-02-04)"
   xmlns:inkscape="http://www.inkscape.org/namespaces/inkscape"
   xmlns:sodipodi="http://sodipodi.sourceforge.net/DTD/sodipodi-0.dtd"
   xmlns="http://www.w3.org/2000/svg"
   xmlns:svg="http://www.w3.org/2000/svg"><defs
   id="defs39" /><sodipodi:namedview
   id="namedview37"
   pagecolor="#ffffff"
   bordercolor="#111111"
   borderopacity="1"
   inkscape:pageshadow="0"
   inkscape:pageopacity="0"
   inkscape:pagecheckerboard="1"
   showgrid="false"
   inkscape:zoom="0.056568542"
   inkscape:cx="1352.3417"
   inkscape:cy="2722.3611"
   inkscape:window-width="1920"
   inkscape:window-height="980"
   inkscape:window-x="1920"
   inkscape:window-y="27"
   inkscape:window-maximized="1"
   inkscape:current-layer="Layer_1" />
<rect
   x="-1"
   fill="#E6886E"
   width="3002"
   height="1000"
   id="rect2" />
<rect
   x="1000.006"
   fill="#9abfcb"
   width="1000"
   height="1000"
   id="rect4" />
<circle
   fill="#FFFFFF"
   cx="500"
   cy="500"
   r="387"
   id="circle6" />
<circle
   fill="#104C71"
   cx="1500"
   cy="501.001"
   r="387"
   id="circle8" /><path
   style="fill:none;stroke:#104c71;stroke-width:16;stroke-linecap:butt;stroke-linejoin:miter;stroke-opacity:1;stroke-miterlimit:4;stroke-dasharray:none"
   d="m 286.98775,695.11549 c 99.59425,1.5627 197.80468,119.01631 228.05686,117.19166 14.52298,-0.87589 -10.54045,-29.74278 62.00232,-126.24174 13.68223,-18.20067 97.43078,-5.10779 104.57484,-18.48274 19.6592,-36.80539 4.26467,-51.3155 7.00324,-68.33612 2.7386,-17.02061 14.60564,-14.13071 16.00514,-25.10819 2.14297,-16.80918 -14.85334,-18.95767 -15.54768,-24.73058 -0.53954,-4.48593 18.52687,3.50634 16.38707,-16.1771 -2.35948,-21.70427 -13.47865,-19.59956 -10.91435,-30.0922 2.34521,-9.5962 30.77971,-7.90268 37.67774,-28.58745 6.89805,-20.6847 -55.20804,-64.17946 -56.60739,-86.13711 -1.39936,-21.95774 10.80907,-28.55187 6.56831,-52.0945 -4.24079,-23.54264 -45.83211,-143.97567 -194.05782,-145.3211 -148.22574,-1.34546 -231.61556,107.72951 -215.74339,207.7832 15.87216,100.0537 56.8703,169.65635 55.12417,208.07589 -1.74613,38.41962 -40.52906,88.25808 -40.52906,88.25808 z"
   id="path1007"
   sodipodi:nodetypes="cssssssssssssssc" /><path
   style="fill:#e6886e;fill-opacity:1;stroke:#000000;stroke-width:2.04695px;stroke-linecap:butt;stroke-linejoin:miter;stroke-opacity:1"
   d="m 347.89456,336.27447 37.96886,12.15458 c 0,0 17.71802,-26.48669 39.41758,-26.52513 21.69957,-0.0387 36.99263,21.53315 33.00407,33.27414 -8.2761,24.36201 -58.1904,27.20533 -58.1904,27.20533 l -2.43319,30.88187 c 0,0 72.04851,-1.26391 58.37919,37.19523 -19.22191,54.08171 -75.017,1.23304 -75.017,1.23304 l -29.88165,22.15511 c 0,0 18.85001,52.67132 96.81386,36.82689 67.45729,-13.7093 64.12129,-51.58504 59.2945,-74.76995 -4.82678,-23.18481 -37.19005,-46.56312 -37.19005,-46.56312 0,0 33.52393,-13.62367 34.22001,-48.40273 0.69607,-34.77906 -41.78302,-51.35666 -68.46215,-51.86085 -26.67914,-0.50443 -72.2808,4.83995 -87.92363,47.19559 z"
   id="path3326"
   sodipodi:nodetypes="cccsccsccsscssc" /><path
   style="fill:#b1dae5;fill-opacity:1;stroke:#000000;stroke-width:2.04695px;stroke-linecap:butt;stroke-linejoin:miter;stroke-opacity:1"
   d="m 592.2261,336.27447 -37.96884,12.15458 c 0,0 -17.71804,-26.48669 -39.41759,-26.52513 -21.69958,-0.0387 -36.99265,21.53315 -33.00406,33.27414 8.2761,24.36201 58.19038,27.20533 58.19038,27.20533 l 2.43319,30.88187 c 0,0 -72.04852,-1.26391 -58.37917,37.19523 19.22189,54.08171 75.01699,1.23304 75.01699,1.23304 l 29.88163,22.15511 c 0,0 -18.85,52.67132 -96.81383,36.82689 -67.45729,-13.7093 -64.12132,-51.58504 -59.29453,-74.76995 4.82679,-23.18481 37.19006,-46.56312 37.19006,-46.56312 0,0 -33.52393,-13.62367 -34.22002,-48.40273 -0.69604,-34.77906 41.78302,-51.35666 68.46218,-51.86085 26.67914,-0.50443 72.2808,4.83995 87.92361,47.19559 z"
   id="path3326-3"
   sodipodi:nodetypes="cccsccsccsscssc" />
<circle
   fill="#FFFFFF"
   cx="2501.6"
   cy="500"
   r="387"
   id="circle10" />

<circle
   fill="none"
   stroke="#ffffff"
   stroke-width="10"
   stroke-miterlimit="10"
   cx="1484.7296"
   cy="470.56897"
   r="59.209999"
   id="circle14" />
<circle
   fill="none"
   stroke="#ffffff"
   stroke-width="10"
   stroke-miterlimit="10"
   cx="1479.3783"
   cy="293.63159"
   r="59.209999"
   id="circle16" />
<circle
   fill="none"
   stroke="#ffffff"
   stroke-width="10"
   stroke-miterlimit="10"
   cx="1554.234"
   cy="744.17041"
   r="59.209999"
   id="circle18" />
<circle
   fill="none"
   stroke="#ffffff"
   stroke-width="10"
   stroke-miterlimit="10"
   cx="1309.3589"
   cy="386.09958"
   r="59.209999"
   id="circle20" />
<circle
   fill="none"
   stroke="#ffffff"
   stroke-width="10"
   stroke-miterlimit="10"
   cx="1290.3933"
   cy="634.83209"
   r="59.209999"
   id="circle22" />
<circle
   fill="none"
   stroke="#ffffff"
   stroke-width="10"
   stroke-miterlimit="10"
   cx="1723.7336"
   cy="337.43631"
   r="59.209999"
   id="circle24" />
<circle
   fill="none"
   stroke="#ffffff"
   stroke-width="10"
   stroke-miterlimit="10"
   cx="1773.3878"
   cy="536.01111"
   r="59.209999"
   id="circle26" /><circle
   fill="none"
   stroke="#ffffff"
   stroke-width="10"
   stroke-miterlimit="10"
   cx="1620.0746"
   cy="578.28253"
   r="59.209999"
   id="circle26-3" />




<g
   aria-label="A"
   transform="scale(0.94758257,1.055317)"
   id="text2792"
   style="font-size:102.026px;line-height:1.25;fill:#ffffff;stroke-width:2.55066"><path
     d="m 1386.6637,636.36804 -8.7742,-22.54774 h -28.8734 l -8.6722,22.54774 h -9.2843 l 28.4652,-73.15264 h 8.2641 l 28.3633,73.15264 z m -19.691,-52.74744 q -0.3061,-0.81621 -1.0202,-2.95875 -0.7142,-2.14255 -1.4284,-4.38712 -0.6122,-2.3466 -1.0203,-3.57091 -0.7141,3.1628 -1.6324,6.22358 -0.9182,2.95876 -1.5304,4.6932 l -8.2641,22.03762 h 23.0579 z"
     id="path6220" /></g><path
   style="fill:#ffffff;stroke:#ffffff;stroke-width:6.96635;stroke-linecap:butt;stroke-linejoin:miter;stroke-miterlimit:4;stroke-dasharray:none;stroke-opacity:1"
   d="m 1338.8727,595.98037 101.851,-86.45956"
   id="path6306" /><path
   style="fill:#ffffff;stroke:#ffffff;stroke-width:6.95761;stroke-linecap:butt;stroke-linejoin:miter;stroke-miterlimit:4;stroke-dasharray:none;stroke-opacity:1"
   d="m 1641.9444,522.27897 62.8243,-125.01569"
   id="path6306-6" /><path
   style="fill:none;stroke:#ffffff;stroke-width:7;stroke-linecap:butt;stroke-linejoin:miter;stroke-opacity:1;stroke-miterlimit:4;stroke-dasharray:none"
   d="m 1527.7306,506.1793 48.2114,31.63904"
   id="path7423" /><text
   xml:space="preserve"
   style="font-style:normal;font-weight:normal;font-size:93.7263px;line-height:1.25;font-family:sans-serif;fill:#ffffff;fill-opacity:1;stroke:none;stroke-width:2.34316"
   x="1738.7937"
   y="361.09756"
   id="text9872"
   transform="scale(0.97641709,1.0241525)"><tspan
     sodipodi:role="line"
     id="tspan9870"
     x="1738.7937"
     y="361.09756"
     style="stroke-width:2.34316">B</tspan></text><path
   style="fill:none;stroke:#ffffff;stroke-width:7.53337;stroke-linecap:butt;stroke-linejoin:miter;stroke-miterlimit:4;stroke-dasharray:22.6001, 22.6001;stroke-dashoffset:0;stroke-opacity:1"
   d="m 1347.7965,664.42926 146.1726,48.27652"
   id="path12649" /><path
   style="fill:none;stroke:#ffffff;stroke-width:7;stroke-linecap:butt;stroke-linejoin:miter;stroke-opacity:1;stroke-miterlimit:4;stroke-dasharray:21, 21;stroke-dashoffset:0"
   d="m 1430.6645,442.26664 -68.6073,-35.12006"
   id="path13668" /><path
   style="fill:none;stroke:#ffffff;stroke-width:7;stroke-linecap:butt;stroke-linejoin:miter;stroke-opacity:1;stroke-miterlimit:4;stroke-dasharray:21, 7;stroke-dashoffset:0"
   d="m 1359.4817,351.43263 67.876,-26.3201"
   id="path13769" /><path
   style="fill:none;stroke:#ffffff;stroke-width:7;stroke-linecap:butt;stroke-linejoin:miter;stroke-opacity:1;stroke-miterlimit:4;stroke-dasharray:21, 21;stroke-dashoffset:0"
   d="m 1518.7809,340.86908 91.5656,178.15938"
   id="path13870" /><path
   style="fill:none;stroke:#ffffff;stroke-width:6.7726;stroke-linecap:butt;stroke-linejoin:miter;stroke-miterlimit:4;stroke-dasharray:27.0904, 27.0904;stroke-dashoffset:0;stroke-opacity:1"
   d="M 1601.4933,712.9395 1742.4858,589.00969"
   id="path13971" /><path
   style="fill:none;stroke:#ffffff;stroke-width:7;stroke-linecap:butt;stroke-linejoin:miter;stroke-opacity:1;stroke-miterlimit:4;stroke-dasharray:28, 7;stroke-dashoffset:0"
   d="m 1765.4947,476.65402 -20.0501,-79.8874"
   id="path14140" /><path
   style="fill:#104c71;stroke-width:0.476514;fill-opacity:1"
   d="m 2282.2103,689.86854 c -1.4174,-2.51733 -16.666,-28.95349 -27.1399,-47.05214 -4.3226,-7.46936 -8.9732,-15.53984 -10.3346,-17.93442 l -2.4753,-4.35382 6.2711,-10.89465 c 3.4491,-5.99206 9.6163,-16.68433 13.7051,-23.76057 14.6521,-25.35847 48.3336,-83.71384 58.1697,-100.78277 5.5124,-9.56603 10.722,-18.57215 11.577,-20.0136 0.855,-1.44146 5.9967,-10.34036 11.4262,-19.77535 5.4295,-9.43498 11.43,-19.8349 13.3344,-23.11094 3.6574,-6.29166 18.2407,-31.55135 25.8601,-44.79235 2.4884,-4.32436 5.6408,-9.79237 7.0053,-12.15111 3.4012,-5.87947 30.1938,-52.2771 44.4394,-76.95706 6.4293,-11.13852 13.4345,-23.2539 15.5671,-26.92306 l 3.8776,-6.6712 h 41.1889 41.189 l 3.8708,6.6712 c 5.9546,10.26241 28.392,49.08164 33.4639,57.89649 4.7805,8.30807 5.6669,9.84416 21.3105,36.92986 5.4492,9.43498 13.5581,23.48024 18.0196,31.21168 4.4615,7.73145 11.1452,19.31075 14.8528,25.73177 3.7076,6.42104 13.6737,23.68276 22.1471,38.35941 8.4733,14.67664 16.5828,28.7219 18.021,31.21168 1.4382,2.48979 10.6603,18.46494 20.4934,35.50032 9.8333,17.03539 19.3057,33.43939 21.0501,36.45334 1.7442,3.01396 9.3586,16.20149 16.9207,29.30564 7.5621,13.10414 15.406,26.6928 17.4308,30.19699 l 3.6815,6.37129 -6.2257,10.78323 c -10.7475,18.6151 -21.3694,37.04262 -28.2525,49.01404 l -6.6385,11.54599 -211.3342,0.005 -211.334,0.005 -1.1384,-2.02152 z m 422.2018,-9.77712 c 3.6335,-6.27345 19.5355,-33.81209 24.9637,-43.23145 2.4165,-4.19333 5.0591,-8.74999 5.8725,-10.12593 l 1.479,-2.5017 H 2566.624 c -93.5567,0 -170.1032,-0.0688 -170.1032,-0.15277 0,-0.084 3.4576,-6.14169 7.6836,-13.46153 23.6239,-40.91842 39.122,-67.77201 43.7465,-75.79889 1.984,-3.44381 9.9331,-17.21789 17.6645,-30.60904 l 25.7433,-41.06343 1.8502,-1.39537 2.2703,5.57983 c 0,0 -5.9098,9.78646 -26.62,45.58641 -17.5939,30.41315 -20.3984,35.51442 -20.3984,36.01253 0,0.33103 14.9347,0.48904 46.2219,0.48904 35.2228,0 46.222,-0.13394 46.222,-0.56281 0,-0.30959 -1.2655,-2.72195 -2.8121,-5.36079 -1.5466,-2.63889 -5.2182,-8.97939 -8.1591,-14.09 -2.9408,-5.11061 -7.0233,-12.18686 -9.0722,-15.72497 -2.0489,-3.53812 -7.2642,-12.54424 -11.5895,-20.0136 l -7.8643,-13.58066 -5.9283,-12.75515 c 0,0 -1.4913,-15.05494 -4.1378,-19.1978 18.2928,31.82953 18.5098,31.88314 19.4633,33.79206 0.5706,1.14258 1.0374,2.24471 1.0374,2.44918 0,0.20448 0.2952,0.60985 0.656,0.90085 0.5939,0.47895 12.4964,20.91536 30.4827,52.33872 l 6.7442,11.78248 34.6664,0.0114 c 24.3863,0.008 34.6665,-0.14048 34.6665,-0.50039 0,-0.28138 -1.5812,-3.22981 -3.5138,-6.55207 -1.9325,-3.32226 -4.7493,-8.18475 -6.2594,-10.80558 -3.998,-6.93862 -48.9865,-84.87588 -59.5512,-103.16535 -12.0649,-20.88672 -42.827,-74.16445 -47.1857,-81.7222 -2.5695,-4.45541 -7.0298,-12.17495 -9.9119,-17.15452 -2.882,-4.97957 -7.2748,-12.59189 -9.7619,-16.91626 -2.4869,-4.32436 -6.1346,-10.65009 -8.1059,-14.05717 -1.9712,-3.40708 -5.0091,-8.66065 -6.7509,-11.6746 -10.2268,-17.69588 -12.163,-20.96662 -12.4116,-20.96662 -0.1513,0 -7.4822,12.49063 -16.2907,27.75695 -8.8086,15.26633 -20.2882,35.15484 -25.5101,44.1967 -5.222,9.04186 -14.3856,24.90979 -20.3635,35.26206 -5.978,10.35227 -12.4823,21.60993 -14.454,25.017 -1.9717,3.40708 -5.5541,9.62559 -7.9608,13.81892 -2.4067,4.19333 -6.7371,11.69842 -9.6232,16.678 -2.886,4.97958 -10.4457,18.05989 -16.7994,29.06737 -6.3535,11.00748 -15.5761,26.98262 -20.4944,35.50032 -4.9183,8.51769 -15.3181,26.52993 -23.1105,40.0272 -33.9931,58.87949 -39.1893,67.87122 -45.3288,78.43859 -2.4529,4.22197 -4.5835,7.99858 -4.7346,8.39251 -0.1612,0.4199 2.1706,4.93312 5.6355,10.9078 6.3761,10.99451 21.9293,37.92936 26.0403,45.09628 1.3906,2.42426 2.6685,4.40775 2.8396,4.40775 0.1712,0 4.7349,-7.66592 10.1416,-17.03538 5.4068,-9.36946 14.1654,-24.5405 19.4638,-33.71341 13.506,-23.38274 17.7719,-30.77629 22.9569,-39.78894 2.4879,-4.32437 9.3001,-16.1181 15.1382,-26.20829 5.8382,-10.09018 13.5207,-23.38494 17.0723,-29.54388 3.5516,-6.15895 9.4964,-16.45166 13.2107,-22.87269 19.0634,-32.95573 66.5396,-115.2599 69.0543,-119.71159 1.5875,-2.81044 2.9936,-5.10905 3.1247,-5.108 0.131,0 6.1849,10.3417 13.4531,22.97919 7.2683,12.63749 18.706,31.06773 23.6888,39.70179 11.5735,21.44086 6.409,27.111 -1.3967,13.98712 -3.0138,-5.55458 -2.8712,-5.50312 -17.8615,-31.4264 -19.8907,-34.3979 -17.7494,-30.79011 -18.0789,-30.46056 -0.1467,0.14662 -14.1243,24.2684 -31.0615,53.60386 -16.9372,29.33551 -34.8224,60.30627 -39.745,68.82396 -4.9224,8.5177 -12.5331,21.70523 -16.9125,29.30563 -4.3793,7.60041 -10.3809,18.00033 -13.3369,23.11095 -22.056,38.13277 -24.9896,43.2126 -32.8848,56.94345 -5.4438,9.46768 -18.426,31.92944 -24.8346,42.96898 -2.4607,4.2388 -4.474,7.93774 -4.474,8.21988 0,0.36548 58.869,0.50944 204.7821,0.50072 l 204.782,-0.0124 2.6838,-4.63377 z m 31.8634,-63.48559 c 0,-0.4362 -7.5643,-13.67687 -23.8186,-41.69272 -3.3451,-5.76582 -13.7502,-23.77806 -23.1221,-40.02719 -9.3719,-16.24914 -18.5887,-32.22429 -20.482,-35.50033 -1.8932,-3.27603 -5.5432,-9.60175 -8.1112,-14.05717 -6.6341,-11.50996 -33.1813,-57.48516 -42.6483,-73.85971 -17.1729,-29.70271 -24.1391,-41.76401 -28.4845,-49.31924 -6.5531,-11.39331 -10.7727,-18.70651 -18.6963,-32.40296 -6.8574,-11.85349 -11.454,-19.81781 -30.1734,-52.27982 l -9.1265,-15.82647 -34.6664,-0.0176 c -19.0665,-0.01 -34.6665,0.1583 -34.6665,0.37335 0,0.38231 2.287,4.4424 11.1871,19.86088 5.5836,9.67304 21.2318,36.7718 33.7761,58.49213 5.3355,9.23842 12.0518,20.87132 14.9251,25.8509 2.8733,4.97958 13.2735,22.99181 23.1118,40.0272 9.8383,17.03539 25.9968,45.01869 35.9076,62.18512 9.911,17.16643 25.386,43.97036 34.3892,59.56429 l 16.3692,28.3526 -94.1827,0.23825 -94.1827,0.23826 -1.7651,3.09735 c -0.9707,1.70354 -3.3806,5.88494 -5.3552,9.29202 -1.9747,3.40709 -5.6261,9.73281 -8.1144,14.05717 -2.4882,4.32438 -7.772,13.47884 -11.7415,20.34321 -3.9696,6.86443 -7.2175,12.70769 -7.2175,12.98502 0,0.35371 48.8003,0.50429 163.4444,0.50429 109.1643,0 163.4444,-0.15901 163.4444,-0.47879 z"
   id="path14671"
   sodipodi:nodetypes="ssscsssssssssscccssssssssssscssccccscsscssssccccsssssssscccsssscsssssssssssssssssssssssssssssssscsccsssssssssscccssssssssscsssssssscccsssssss" /></svg>
